<mxfile host="app.diagrams.net" modified="2021-11-12T00:54:27.888Z" agent="5.0 (Windows NT 10.0; Win64; x64) AppleWebKit/537.36 (KHTML, like Gecko) Chrome/95.0.4638.69 Safari/537.36" etag="EEvCE0YtdrUwoh40cvU5" version="15.7.3" type="github">
  <diagram id="6a731a19-8d31-9384-78a2-239565b7b9f0" name="Page-1">
    <mxGraphModel dx="3614" dy="-208" grid="0" gridSize="10" guides="1" tooltips="1" connect="1" arrows="1" fold="1" page="1" pageScale="1" pageWidth="1169" pageHeight="827" background="#ffffff" math="1" shadow="0">
      <root>
        <mxCell id="0" />
        <mxCell id="1" parent="0" />
        <mxCell id="-uzsMk_w0Du20uLRkKy_-36" value="Clients" style="ellipse;shape=cloud;whiteSpace=wrap;html=1;shadow=0;glass=0;labelBackgroundColor=none;labelBorderColor=none;comic=0;sketch=0;fontSize=18;fontColor=#000000;strokeColor=default;fillColor=none;verticalAlign=top;dashed=1;" vertex="1" parent="1">
          <mxGeometry x="-2317" y="1203" width="368" height="433" as="geometry" />
        </mxCell>
        <mxCell id="PWVrWmLwcKZv5xCnu7mB-157" value="API Relay Backends" style="rounded=1;whiteSpace=wrap;html=1;dashed=1;verticalAlign=top;horizontal=0;spacing=2;arcSize=6;glass=0;sketch=0;shadow=0;opacity=20;strokeColor=#d79b00;fillColor=#ffe6cc;" parent="1" vertex="1">
          <mxGeometry x="-1844" y="838" width="291" height="798" as="geometry" />
        </mxCell>
        <mxCell id="PWVrWmLwcKZv5xCnu7mB-8" value="Global Mempool" style="rounded=1;whiteSpace=wrap;html=1;dashed=1;verticalAlign=top;horizontal=1;spacing=2;arcSize=6;glass=0;sketch=0;shadow=0;opacity=20;strokeColor=default;fillColor=default;fontColor=default;" parent="1" vertex="1">
          <mxGeometry x="-1812" y="1383" width="240" height="240" as="geometry" />
        </mxCell>
        <mxCell id="PWVrWmLwcKZv5xCnu7mB-158" value="Cardano Network" style="rounded=1;whiteSpace=wrap;html=1;dashed=1;verticalAlign=top;horizontal=1;spacing=2;arcSize=2;glass=0;sketch=0;shadow=0;opacity=20;strokeColor=default;fillColor=default;fontColor=default;labelPosition=center;verticalLabelPosition=middle;align=center;" parent="1" vertex="1">
          <mxGeometry x="-1864" y="831" width="692" height="815" as="geometry" />
        </mxCell>
        <mxCell id="PWVrWmLwcKZv5xCnu7mB-1" value="Isolated Mempool" style="rounded=1;whiteSpace=wrap;html=1;dashed=1;verticalAlign=top;horizontal=1;spacing=2;arcSize=6;glass=0;sketch=0;shadow=0;opacity=20;strokeColor=default;fillColor=default;fontColor=default;" parent="1" vertex="1">
          <mxGeometry x="-1812" y="845" width="240" height="240" as="geometry" />
        </mxCell>
        <mxCell id="PWVrWmLwcKZv5xCnu7mB-7" value="Clustered Mempool" style="rounded=1;whiteSpace=wrap;dashed=1;verticalAlign=top;horizontal=1;spacing=2;arcSize=6;glass=0;sketch=0;shadow=0;opacity=20;strokeColor=default;fillColor=default;fontColor=default;html=1;labelBorderColor=none;labelBackgroundColor=none;" parent="1" vertex="1">
          <mxGeometry x="-1812" y="1121" width="240" height="240" as="geometry" />
        </mxCell>
        <mxCell id="PWVrWmLwcKZv5xCnu7mB-62" style="edgeStyle=orthogonalEdgeStyle;rounded=0;orthogonalLoop=1;jettySize=auto;html=1;fontColor=#575757;startArrow=none;startFill=0;endArrow=async;endFill=1;targetPerimeterSpacing=0;strokeColor=#5C5C5C;jumpStyle=none;dashed=1;dashPattern=1 1;" parent="1" source="PWVrWmLwcKZv5xCnu7mB-45" target="PWVrWmLwcKZv5xCnu7mB-113" edge="1">
          <mxGeometry relative="1" as="geometry">
            <mxPoint x="-1545" y="922.622641509434" as="targetPoint" />
            <Array as="points">
              <mxPoint x="-1640" y="1032" />
              <mxPoint x="-1640" y="1076" />
            </Array>
          </mxGeometry>
        </mxCell>
        <mxCell id="PWVrWmLwcKZv5xCnu7mB-24" value="" style="group" parent="1" vertex="1" connectable="0">
          <mxGeometry x="-1760" y="877" width="182" height="194" as="geometry" />
        </mxCell>
        <mxCell id="PWVrWmLwcKZv5xCnu7mB-19" value="Node" style="rounded=1;whiteSpace=wrap;html=1;fillColor=#ffe6cc;strokeColor=#d79b00;verticalAlign=top;treeFolding=0;treeMoving=0;comic=0;horizontal=0;" parent="PWVrWmLwcKZv5xCnu7mB-24" vertex="1">
          <mxGeometry width="50" height="49.99999999999997" as="geometry" />
        </mxCell>
        <mxCell id="PWVrWmLwcKZv5xCnu7mB-21" value="" style="rounded=0;whiteSpace=wrap;html=1;shadow=0;glass=0;labelBackgroundColor=none;sketch=0;verticalAlign=top;fillColor=#60a917;strokeColor=none;imageAspect=1;fontColor=#ffffff;" parent="PWVrWmLwcKZv5xCnu7mB-24" vertex="1">
          <mxGeometry x="30" y="10" width="13.89" height="10" as="geometry" />
        </mxCell>
        <mxCell id="PWVrWmLwcKZv5xCnu7mB-22" value="" style="rounded=0;whiteSpace=wrap;html=1;shadow=0;glass=0;labelBackgroundColor=none;sketch=0;verticalAlign=top;fillColor=#60a917;strokeColor=none;imageAspect=1;fontColor=#ffffff;" parent="PWVrWmLwcKZv5xCnu7mB-24" vertex="1">
          <mxGeometry x="30" y="20" width="13.89" height="10" as="geometry" />
        </mxCell>
        <mxCell id="PWVrWmLwcKZv5xCnu7mB-23" value="" style="rounded=0;whiteSpace=wrap;html=1;shadow=0;glass=0;labelBackgroundColor=none;sketch=0;verticalAlign=top;fillColor=#60a917;strokeColor=none;imageAspect=1;fontColor=#ffffff;" parent="PWVrWmLwcKZv5xCnu7mB-24" vertex="1">
          <mxGeometry x="30" y="30" width="13.89" height="10" as="geometry" />
        </mxCell>
        <mxCell id="PWVrWmLwcKZv5xCnu7mB-49" value="" style="group" parent="1" vertex="1" connectable="0">
          <mxGeometry x="-1757" y="1007" width="50" height="50" as="geometry" />
        </mxCell>
        <mxCell id="PWVrWmLwcKZv5xCnu7mB-45" value="Node" style="rounded=1;whiteSpace=wrap;html=1;fillColor=#ffe6cc;strokeColor=#d79b00;verticalAlign=top;treeFolding=0;treeMoving=0;comic=0;horizontal=0;" parent="PWVrWmLwcKZv5xCnu7mB-49" vertex="1">
          <mxGeometry width="50" height="49.99999999999997" as="geometry" />
        </mxCell>
        <mxCell id="PWVrWmLwcKZv5xCnu7mB-46" value="" style="rounded=0;whiteSpace=wrap;html=1;shadow=0;glass=0;labelBackgroundColor=none;sketch=0;verticalAlign=top;fillColor=#1ba1e2;strokeColor=none;imageAspect=1;fontColor=#ffffff;" parent="PWVrWmLwcKZv5xCnu7mB-49" vertex="1">
          <mxGeometry x="30" y="10" width="13.89" height="10" as="geometry" />
        </mxCell>
        <mxCell id="PWVrWmLwcKZv5xCnu7mB-47" value="" style="rounded=0;whiteSpace=wrap;html=1;shadow=0;glass=0;labelBackgroundColor=none;sketch=0;verticalAlign=top;fillColor=#1ba1e2;strokeColor=none;imageAspect=1;fontColor=#ffffff;" parent="PWVrWmLwcKZv5xCnu7mB-49" vertex="1">
          <mxGeometry x="30" y="20" width="13.89" height="10" as="geometry" />
        </mxCell>
        <mxCell id="PWVrWmLwcKZv5xCnu7mB-48" value="" style="rounded=0;whiteSpace=wrap;html=1;shadow=0;glass=0;labelBackgroundColor=none;sketch=0;verticalAlign=top;fillColor=#1ba1e2;strokeColor=none;imageAspect=1;fontColor=#ffffff;" parent="PWVrWmLwcKZv5xCnu7mB-49" vertex="1">
          <mxGeometry x="30" y="30" width="13.89" height="10" as="geometry" />
        </mxCell>
        <mxCell id="PWVrWmLwcKZv5xCnu7mB-50" value="" style="group" parent="1" vertex="1" connectable="0">
          <mxGeometry x="-1760" y="940" width="50" height="50" as="geometry" />
        </mxCell>
        <mxCell id="PWVrWmLwcKZv5xCnu7mB-36" value="Node" style="rounded=1;whiteSpace=wrap;html=1;fillColor=#ffe6cc;strokeColor=#d79b00;verticalAlign=top;treeFolding=0;treeMoving=0;comic=0;horizontal=0;" parent="PWVrWmLwcKZv5xCnu7mB-50" vertex="1">
          <mxGeometry width="50" height="49.99999999999997" as="geometry" />
        </mxCell>
        <mxCell id="PWVrWmLwcKZv5xCnu7mB-37" value="" style="rounded=0;whiteSpace=wrap;html=1;shadow=0;glass=0;labelBackgroundColor=none;sketch=0;verticalAlign=top;fillColor=#d80073;strokeColor=none;imageAspect=1;fontColor=#ffffff;" parent="PWVrWmLwcKZv5xCnu7mB-50" vertex="1">
          <mxGeometry x="30" y="10" width="13.89" height="10" as="geometry" />
        </mxCell>
        <mxCell id="PWVrWmLwcKZv5xCnu7mB-38" value="" style="rounded=0;whiteSpace=wrap;html=1;shadow=0;glass=0;labelBackgroundColor=none;sketch=0;verticalAlign=top;fillColor=#d80073;strokeColor=none;imageAspect=1;fontColor=#ffffff;" parent="PWVrWmLwcKZv5xCnu7mB-50" vertex="1">
          <mxGeometry x="30" y="20" width="13.89" height="10" as="geometry" />
        </mxCell>
        <mxCell id="PWVrWmLwcKZv5xCnu7mB-39" value="" style="rounded=0;whiteSpace=wrap;html=1;shadow=0;glass=0;labelBackgroundColor=none;sketch=0;verticalAlign=top;fillColor=#d80073;strokeColor=none;imageAspect=1;fontColor=#ffffff;" parent="PWVrWmLwcKZv5xCnu7mB-50" vertex="1">
          <mxGeometry x="30" y="30" width="13.89" height="10" as="geometry" />
        </mxCell>
        <mxCell id="PWVrWmLwcKZv5xCnu7mB-60" style="edgeStyle=orthogonalEdgeStyle;rounded=0;orthogonalLoop=1;jettySize=auto;html=1;fontColor=default;startArrow=none;startFill=0;endArrow=async;endFill=1;targetPerimeterSpacing=0;strokeColor=#5C5C5C;jumpStyle=arc;dashed=1;dashPattern=1 1;" parent="1" source="PWVrWmLwcKZv5xCnu7mB-36" target="PWVrWmLwcKZv5xCnu7mB-123" edge="1">
          <mxGeometry relative="1" as="geometry">
            <mxPoint x="-1543" y="1019.8571428571429" as="targetPoint" />
            <Array as="points">
              <mxPoint x="-1663" y="965" />
              <mxPoint x="-1663" y="1019" />
              <mxPoint x="-1465" y="1019" />
            </Array>
          </mxGeometry>
        </mxCell>
        <mxCell id="PWVrWmLwcKZv5xCnu7mB-61" style="edgeStyle=orthogonalEdgeStyle;rounded=0;orthogonalLoop=1;jettySize=auto;html=1;fontColor=#575757;startArrow=none;startFill=0;endArrow=async;endFill=1;targetPerimeterSpacing=0;strokeColor=#5C5C5C;jumpStyle=line;dashed=1;dashPattern=1 1;entryX=0.25;entryY=0;entryDx=0;entryDy=0;" parent="1" source="PWVrWmLwcKZv5xCnu7mB-45" target="PWVrWmLwcKZv5xCnu7mB-123" edge="1">
          <mxGeometry relative="1" as="geometry">
            <mxPoint x="-1543" y="1027.5841121495328" as="targetPoint" />
            <Array as="points">
              <mxPoint x="-1659" y="1032" />
              <mxPoint x="-1659" y="1096" />
              <mxPoint x="-1477" y="1096" />
              <mxPoint x="-1477" y="1225" />
            </Array>
          </mxGeometry>
        </mxCell>
        <mxCell id="PWVrWmLwcKZv5xCnu7mB-63" style="edgeStyle=orthogonalEdgeStyle;rounded=0;orthogonalLoop=1;jettySize=auto;html=1;fontColor=#575757;startArrow=none;startFill=0;endArrow=async;endFill=1;targetPerimeterSpacing=0;strokeColor=#5C5C5C;jumpStyle=arc;dashed=1;dashPattern=1 1;exitX=1;exitY=0.5;exitDx=0;exitDy=0;entryX=0.75;entryY=0;entryDx=0;entryDy=0;" parent="1" source="PWVrWmLwcKZv5xCnu7mB-19" target="PWVrWmLwcKZv5xCnu7mB-123" edge="1">
          <mxGeometry relative="1" as="geometry">
            <mxPoint x="-1716" y="918.7236363636364" as="sourcePoint" />
            <mxPoint x="-1543" y="1012.5990783410138" as="targetPoint" />
            <Array as="points">
              <mxPoint x="-1665" y="902" />
              <mxPoint x="-1665" y="933" />
              <mxPoint x="-1452" y="933" />
              <mxPoint x="-1452" y="1225" />
            </Array>
          </mxGeometry>
        </mxCell>
        <mxCell id="PWVrWmLwcKZv5xCnu7mB-64" style="rounded=0;orthogonalLoop=1;jettySize=auto;html=1;fontColor=#000000;startArrow=none;startFill=0;endArrow=async;endFill=1;strokeColor=#5C5C5C;targetPerimeterSpacing=0;edgeStyle=orthogonalEdgeStyle;labelBackgroundColor=none;dashed=1;dashPattern=1 1;exitX=1;exitY=0.5;exitDx=0;exitDy=0;entryX=0.75;entryY=0;entryDx=0;entryDy=0;" parent="1" source="PWVrWmLwcKZv5xCnu7mB-19" target="PWVrWmLwcKZv5xCnu7mB-113" edge="1">
          <mxGeometry relative="1" as="geometry">
            <mxPoint x="-1696" y="905" as="sourcePoint" />
            <mxPoint x="-1545" y="907.3023255813953" as="targetPoint" />
            <Array as="points">
              <mxPoint x="-1334" y="902" />
              <mxPoint x="-1334" y="1110" />
            </Array>
          </mxGeometry>
        </mxCell>
        <mxCell id="PWVrWmLwcKZv5xCnu7mB-65" style="edgeStyle=orthogonalEdgeStyle;rounded=0;orthogonalLoop=1;jettySize=auto;html=1;fontColor=#575757;startArrow=none;startFill=0;endArrow=async;endFill=1;targetPerimeterSpacing=0;strokeColor=#5C5C5C;jumpStyle=arc;entryX=0;entryY=0.5;entryDx=0;entryDy=0;dashed=1;dashPattern=1 1;" parent="1" source="PWVrWmLwcKZv5xCnu7mB-36" target="-uzsMk_w0Du20uLRkKy_-9" edge="1">
          <mxGeometry relative="1" as="geometry">
            <mxPoint x="-1670" y="959.5513580246914" as="sourcePoint" />
            <mxPoint x="-1545" y="914.6279069767442" as="targetPoint" />
            <Array as="points">
              <mxPoint x="-1640" y="965" />
              <mxPoint x="-1640" y="996" />
              <mxPoint x="-1230" y="996" />
            </Array>
          </mxGeometry>
        </mxCell>
        <mxCell id="PWVrWmLwcKZv5xCnu7mB-66" value="" style="group" parent="1" vertex="1" connectable="0">
          <mxGeometry x="-1759" y="1160" width="50" height="50" as="geometry" />
        </mxCell>
        <mxCell id="PWVrWmLwcKZv5xCnu7mB-67" value="Node" style="rounded=1;whiteSpace=wrap;html=1;fillColor=#ffe6cc;strokeColor=#d79b00;verticalAlign=top;treeFolding=0;treeMoving=0;comic=0;horizontal=0;" parent="PWVrWmLwcKZv5xCnu7mB-66" vertex="1">
          <mxGeometry width="50" height="49.99999999999997" as="geometry" />
        </mxCell>
        <mxCell id="PWVrWmLwcKZv5xCnu7mB-68" value="" style="rounded=0;whiteSpace=wrap;html=1;shadow=0;glass=0;labelBackgroundColor=none;sketch=0;verticalAlign=top;fillColor=#6a00ff;strokeColor=none;imageAspect=1;fontColor=#ffffff;" parent="PWVrWmLwcKZv5xCnu7mB-66" vertex="1">
          <mxGeometry x="30" y="10" width="13.89" height="10" as="geometry" />
        </mxCell>
        <mxCell id="PWVrWmLwcKZv5xCnu7mB-69" value="" style="rounded=0;whiteSpace=wrap;html=1;shadow=0;glass=0;labelBackgroundColor=none;sketch=0;verticalAlign=top;fillColor=#6a00ff;strokeColor=none;imageAspect=1;fontColor=#ffffff;" parent="PWVrWmLwcKZv5xCnu7mB-66" vertex="1">
          <mxGeometry x="30" y="20" width="13.89" height="10" as="geometry" />
        </mxCell>
        <mxCell id="PWVrWmLwcKZv5xCnu7mB-70" value="" style="rounded=0;whiteSpace=wrap;html=1;shadow=0;glass=0;labelBackgroundColor=none;sketch=0;verticalAlign=top;fillColor=#6a00ff;strokeColor=none;imageAspect=1;fontColor=#ffffff;" parent="PWVrWmLwcKZv5xCnu7mB-66" vertex="1">
          <mxGeometry x="30" y="30" width="13.89" height="10" as="geometry" />
        </mxCell>
        <mxCell id="PWVrWmLwcKZv5xCnu7mB-81" value="" style="group" parent="1" vertex="1" connectable="0">
          <mxGeometry x="-1669" y="1225" width="50" height="50" as="geometry" />
        </mxCell>
        <mxCell id="PWVrWmLwcKZv5xCnu7mB-82" value="Node" style="rounded=1;whiteSpace=wrap;html=1;fillColor=#ffe6cc;strokeColor=#d79b00;verticalAlign=top;treeFolding=0;treeMoving=0;comic=0;horizontal=0;" parent="PWVrWmLwcKZv5xCnu7mB-81" vertex="1">
          <mxGeometry width="50" height="49.99999999999997" as="geometry" />
        </mxCell>
        <mxCell id="PWVrWmLwcKZv5xCnu7mB-83" value="" style="rounded=0;whiteSpace=wrap;html=1;shadow=0;glass=0;labelBackgroundColor=none;sketch=0;verticalAlign=top;fillColor=#6a00ff;strokeColor=none;imageAspect=1;fontColor=#ffffff;" parent="PWVrWmLwcKZv5xCnu7mB-81" vertex="1">
          <mxGeometry x="30" y="10" width="13.89" height="10" as="geometry" />
        </mxCell>
        <mxCell id="PWVrWmLwcKZv5xCnu7mB-84" value="" style="rounded=0;whiteSpace=wrap;html=1;shadow=0;glass=0;labelBackgroundColor=none;sketch=0;verticalAlign=top;fillColor=#6a00ff;strokeColor=none;imageAspect=1;fontColor=#ffffff;" parent="PWVrWmLwcKZv5xCnu7mB-81" vertex="1">
          <mxGeometry x="30" y="20" width="13.89" height="10" as="geometry" />
        </mxCell>
        <mxCell id="PWVrWmLwcKZv5xCnu7mB-85" value="" style="rounded=0;whiteSpace=wrap;html=1;shadow=0;glass=0;labelBackgroundColor=none;sketch=0;verticalAlign=top;fillColor=#6a00ff;strokeColor=none;imageAspect=1;fontColor=#ffffff;" parent="PWVrWmLwcKZv5xCnu7mB-81" vertex="1">
          <mxGeometry x="30" y="30" width="13.89" height="10" as="geometry" />
        </mxCell>
        <mxCell id="PWVrWmLwcKZv5xCnu7mB-86" value="" style="group" parent="1" vertex="1" connectable="0">
          <mxGeometry x="-1759" y="1295" width="50" height="50" as="geometry" />
        </mxCell>
        <mxCell id="PWVrWmLwcKZv5xCnu7mB-87" value="Node" style="rounded=1;whiteSpace=wrap;html=1;fillColor=#ffe6cc;strokeColor=#d79b00;verticalAlign=top;treeFolding=0;treeMoving=0;comic=0;horizontal=0;" parent="PWVrWmLwcKZv5xCnu7mB-86" vertex="1">
          <mxGeometry width="50" height="49.99999999999997" as="geometry" />
        </mxCell>
        <mxCell id="PWVrWmLwcKZv5xCnu7mB-88" value="" style="rounded=0;whiteSpace=wrap;html=1;shadow=0;glass=0;labelBackgroundColor=none;sketch=0;verticalAlign=top;fillColor=#6a00ff;strokeColor=none;imageAspect=1;fontColor=#ffffff;" parent="PWVrWmLwcKZv5xCnu7mB-86" vertex="1">
          <mxGeometry x="30" y="10" width="13.89" height="10" as="geometry" />
        </mxCell>
        <mxCell id="PWVrWmLwcKZv5xCnu7mB-89" value="" style="rounded=0;whiteSpace=wrap;html=1;shadow=0;glass=0;labelBackgroundColor=none;sketch=0;verticalAlign=top;fillColor=#6a00ff;strokeColor=none;imageAspect=1;fontColor=#ffffff;" parent="PWVrWmLwcKZv5xCnu7mB-86" vertex="1">
          <mxGeometry x="30" y="20" width="13.89" height="10" as="geometry" />
        </mxCell>
        <mxCell id="PWVrWmLwcKZv5xCnu7mB-90" value="" style="rounded=0;whiteSpace=wrap;html=1;shadow=0;glass=0;labelBackgroundColor=none;sketch=0;verticalAlign=top;fillColor=#6a00ff;strokeColor=none;imageAspect=1;fontColor=#ffffff;" parent="PWVrWmLwcKZv5xCnu7mB-86" vertex="1">
          <mxGeometry x="30" y="30" width="13.89" height="10" as="geometry" />
        </mxCell>
        <mxCell id="PWVrWmLwcKZv5xCnu7mB-91" style="edgeStyle=none;rounded=0;jumpStyle=none;orthogonalLoop=1;jettySize=auto;html=1;fontColor=default;startArrow=async;startFill=1;endArrow=async;endFill=1;targetPerimeterSpacing=0;strokeColor=#5C5C5C;dashed=1;dashPattern=1 1;" parent="1" source="PWVrWmLwcKZv5xCnu7mB-87" target="PWVrWmLwcKZv5xCnu7mB-67" edge="1">
          <mxGeometry relative="1" as="geometry" />
        </mxCell>
        <mxCell id="PWVrWmLwcKZv5xCnu7mB-92" style="edgeStyle=none;rounded=0;jumpStyle=none;orthogonalLoop=1;jettySize=auto;html=1;fontColor=default;startArrow=async;startFill=1;endArrow=async;endFill=1;targetPerimeterSpacing=0;strokeColor=#5C5C5C;dashed=1;dashPattern=1 1;" parent="1" source="PWVrWmLwcKZv5xCnu7mB-67" target="PWVrWmLwcKZv5xCnu7mB-82" edge="1">
          <mxGeometry relative="1" as="geometry" />
        </mxCell>
        <mxCell id="PWVrWmLwcKZv5xCnu7mB-93" style="edgeStyle=none;rounded=0;jumpStyle=none;orthogonalLoop=1;jettySize=auto;html=1;fontColor=default;startArrow=async;startFill=1;endArrow=async;endFill=1;targetPerimeterSpacing=0;strokeColor=#5C5C5C;dashed=1;dashPattern=1 1;" parent="1" source="PWVrWmLwcKZv5xCnu7mB-87" target="PWVrWmLwcKZv5xCnu7mB-82" edge="1">
          <mxGeometry relative="1" as="geometry" />
        </mxCell>
        <mxCell id="PWVrWmLwcKZv5xCnu7mB-112" value="" style="group" parent="1" vertex="1" connectable="0">
          <mxGeometry x="-1372" y="1110" width="50" height="50" as="geometry" />
        </mxCell>
        <mxCell id="PWVrWmLwcKZv5xCnu7mB-113" value="Node" style="rounded=1;whiteSpace=wrap;html=1;fillColor=#ffe6cc;strokeColor=#d79b00;verticalAlign=top;treeFolding=0;treeMoving=0;comic=0;horizontal=0;" parent="PWVrWmLwcKZv5xCnu7mB-112" vertex="1">
          <mxGeometry width="50" height="49.99999999999997" as="geometry" />
        </mxCell>
        <mxCell id="PWVrWmLwcKZv5xCnu7mB-114" value="" style="rounded=0;whiteSpace=wrap;html=1;shadow=0;glass=0;labelBackgroundColor=none;sketch=0;verticalAlign=top;fillColor=#60a917;strokeColor=none;imageAspect=1;fontColor=#ffffff;" parent="PWVrWmLwcKZv5xCnu7mB-112" vertex="1">
          <mxGeometry x="30" y="10" width="13.89" height="3" as="geometry" />
        </mxCell>
        <mxCell id="PWVrWmLwcKZv5xCnu7mB-116" value="" style="rounded=0;whiteSpace=wrap;html=1;shadow=0;glass=0;labelBackgroundColor=none;sketch=0;verticalAlign=top;fillColor=#1ba1e2;strokeColor=none;imageAspect=1;fontColor=#ffffff;" parent="PWVrWmLwcKZv5xCnu7mB-112" vertex="1">
          <mxGeometry x="30" y="16" width="13.89" height="3.5" as="geometry" />
        </mxCell>
        <mxCell id="PWVrWmLwcKZv5xCnu7mB-119" value="" style="rounded=0;whiteSpace=wrap;html=1;shadow=0;glass=0;labelBackgroundColor=none;sketch=0;verticalAlign=top;fillColor=#d80073;strokeColor=none;imageAspect=1;fontColor=#ffffff;" parent="PWVrWmLwcKZv5xCnu7mB-112" vertex="1">
          <mxGeometry x="30" y="13" width="13.89" height="3" as="geometry" />
        </mxCell>
        <mxCell id="PWVrWmLwcKZv5xCnu7mB-120" value="" style="rounded=0;whiteSpace=wrap;html=1;shadow=0;glass=0;labelBackgroundColor=none;sketch=0;verticalAlign=top;fillColor=#6a00ff;strokeColor=none;imageAspect=1;fontColor=#ffffff;" parent="PWVrWmLwcKZv5xCnu7mB-112" vertex="1">
          <mxGeometry x="30" y="19.5" width="13.89" height="10" as="geometry" />
        </mxCell>
        <mxCell id="PWVrWmLwcKZv5xCnu7mB-115" value="" style="rounded=0;whiteSpace=wrap;html=1;shadow=0;glass=0;labelBackgroundColor=none;sketch=0;verticalAlign=top;fillColor=#a20025;strokeColor=none;imageAspect=1;fontColor=#ffffff;" parent="PWVrWmLwcKZv5xCnu7mB-112" vertex="1">
          <mxGeometry x="30" y="29.5" width="13.89" height="10" as="geometry" />
        </mxCell>
        <mxCell id="PWVrWmLwcKZv5xCnu7mB-122" value="" style="group" parent="1" vertex="1" connectable="0">
          <mxGeometry x="-1490" y="1225" width="50" height="50" as="geometry" />
        </mxCell>
        <mxCell id="PWVrWmLwcKZv5xCnu7mB-123" value="Node" style="rounded=1;whiteSpace=wrap;html=1;fillColor=#ffe6cc;strokeColor=#d79b00;verticalAlign=top;treeFolding=0;treeMoving=0;comic=0;horizontal=0;" parent="PWVrWmLwcKZv5xCnu7mB-122" vertex="1">
          <mxGeometry width="50" height="49.99999999999997" as="geometry" />
        </mxCell>
        <mxCell id="PWVrWmLwcKZv5xCnu7mB-124" value="" style="rounded=0;whiteSpace=wrap;html=1;shadow=0;glass=0;labelBackgroundColor=none;sketch=0;verticalAlign=top;fillColor=#60a917;strokeColor=none;imageAspect=1;fontColor=#ffffff;" parent="PWVrWmLwcKZv5xCnu7mB-122" vertex="1">
          <mxGeometry x="30" y="10" width="13.89" height="3" as="geometry" />
        </mxCell>
        <mxCell id="PWVrWmLwcKZv5xCnu7mB-125" value="" style="rounded=0;whiteSpace=wrap;html=1;shadow=0;glass=0;labelBackgroundColor=none;sketch=0;verticalAlign=top;fillColor=#1ba1e2;strokeColor=none;imageAspect=1;fontColor=#ffffff;" parent="PWVrWmLwcKZv5xCnu7mB-122" vertex="1">
          <mxGeometry x="30" y="16" width="13.89" height="3.5" as="geometry" />
        </mxCell>
        <mxCell id="PWVrWmLwcKZv5xCnu7mB-126" value="" style="rounded=0;whiteSpace=wrap;html=1;shadow=0;glass=0;labelBackgroundColor=none;sketch=0;verticalAlign=top;fillColor=#d80073;strokeColor=none;imageAspect=1;fontColor=#ffffff;" parent="PWVrWmLwcKZv5xCnu7mB-122" vertex="1">
          <mxGeometry x="30" y="13" width="13.89" height="3" as="geometry" />
        </mxCell>
        <mxCell id="PWVrWmLwcKZv5xCnu7mB-127" value="" style="rounded=0;whiteSpace=wrap;html=1;shadow=0;glass=0;labelBackgroundColor=none;sketch=0;verticalAlign=top;fillColor=#6a00ff;strokeColor=none;imageAspect=1;fontColor=#ffffff;" parent="PWVrWmLwcKZv5xCnu7mB-122" vertex="1">
          <mxGeometry x="30" y="19.5" width="13.89" height="10" as="geometry" />
        </mxCell>
        <mxCell id="PWVrWmLwcKZv5xCnu7mB-128" value="" style="rounded=0;whiteSpace=wrap;html=1;shadow=0;glass=0;labelBackgroundColor=none;sketch=0;verticalAlign=top;fillColor=#a20025;strokeColor=none;imageAspect=1;fontColor=#ffffff;" parent="PWVrWmLwcKZv5xCnu7mB-122" vertex="1">
          <mxGeometry x="30" y="29.5" width="13.89" height="10" as="geometry" />
        </mxCell>
        <mxCell id="PWVrWmLwcKZv5xCnu7mB-136" value="" style="group" parent="1" vertex="1" connectable="0">
          <mxGeometry x="-1766" y="1549" width="50" height="50" as="geometry" />
        </mxCell>
        <mxCell id="PWVrWmLwcKZv5xCnu7mB-137" value="Node" style="rounded=1;whiteSpace=wrap;html=1;fillColor=#ffe6cc;strokeColor=#d79b00;verticalAlign=top;treeFolding=0;treeMoving=0;comic=0;horizontal=0;" parent="PWVrWmLwcKZv5xCnu7mB-136" vertex="1">
          <mxGeometry width="50" height="49.99999999999997" as="geometry" />
        </mxCell>
        <mxCell id="PWVrWmLwcKZv5xCnu7mB-138" value="" style="rounded=0;whiteSpace=wrap;html=1;shadow=0;glass=0;labelBackgroundColor=none;sketch=0;verticalAlign=top;fillColor=#60a917;strokeColor=none;imageAspect=1;fontColor=#ffffff;" parent="PWVrWmLwcKZv5xCnu7mB-136" vertex="1">
          <mxGeometry x="30" y="10" width="13.89" height="3" as="geometry" />
        </mxCell>
        <mxCell id="PWVrWmLwcKZv5xCnu7mB-139" value="" style="rounded=0;whiteSpace=wrap;html=1;shadow=0;glass=0;labelBackgroundColor=none;sketch=0;verticalAlign=top;fillColor=#1ba1e2;strokeColor=none;imageAspect=1;fontColor=#ffffff;" parent="PWVrWmLwcKZv5xCnu7mB-136" vertex="1">
          <mxGeometry x="30" y="16" width="13.89" height="3.5" as="geometry" />
        </mxCell>
        <mxCell id="PWVrWmLwcKZv5xCnu7mB-140" value="" style="rounded=0;whiteSpace=wrap;html=1;shadow=0;glass=0;labelBackgroundColor=none;sketch=0;verticalAlign=top;fillColor=#d80073;strokeColor=none;imageAspect=1;fontColor=#ffffff;" parent="PWVrWmLwcKZv5xCnu7mB-136" vertex="1">
          <mxGeometry x="30" y="13" width="13.89" height="3" as="geometry" />
        </mxCell>
        <mxCell id="PWVrWmLwcKZv5xCnu7mB-141" value="" style="rounded=0;whiteSpace=wrap;html=1;shadow=0;glass=0;labelBackgroundColor=none;sketch=0;verticalAlign=top;fillColor=#6a00ff;strokeColor=none;imageAspect=1;fontColor=#ffffff;" parent="PWVrWmLwcKZv5xCnu7mB-136" vertex="1">
          <mxGeometry x="30" y="19.5" width="13.89" height="10" as="geometry" />
        </mxCell>
        <mxCell id="PWVrWmLwcKZv5xCnu7mB-142" value="" style="rounded=0;whiteSpace=wrap;html=1;shadow=0;glass=0;labelBackgroundColor=none;sketch=0;verticalAlign=top;fillColor=#a20025;strokeColor=none;imageAspect=1;fontColor=#ffffff;" parent="PWVrWmLwcKZv5xCnu7mB-136" vertex="1">
          <mxGeometry x="30" y="29.5" width="13.89" height="10" as="geometry" />
        </mxCell>
        <mxCell id="PWVrWmLwcKZv5xCnu7mB-143" value="" style="group" parent="1" vertex="1" connectable="0">
          <mxGeometry x="-1678" y="1499" width="50" height="50" as="geometry" />
        </mxCell>
        <mxCell id="PWVrWmLwcKZv5xCnu7mB-144" value="Node" style="rounded=1;whiteSpace=wrap;html=1;fillColor=#ffe6cc;strokeColor=#d79b00;verticalAlign=top;treeFolding=0;treeMoving=0;comic=0;horizontal=0;" parent="PWVrWmLwcKZv5xCnu7mB-143" vertex="1">
          <mxGeometry width="50" height="49.99999999999997" as="geometry" />
        </mxCell>
        <mxCell id="PWVrWmLwcKZv5xCnu7mB-145" value="" style="rounded=0;whiteSpace=wrap;html=1;shadow=0;glass=0;labelBackgroundColor=none;sketch=0;verticalAlign=top;fillColor=#60a917;strokeColor=none;imageAspect=1;fontColor=#ffffff;" parent="PWVrWmLwcKZv5xCnu7mB-143" vertex="1">
          <mxGeometry x="30" y="10" width="13.89" height="3" as="geometry" />
        </mxCell>
        <mxCell id="PWVrWmLwcKZv5xCnu7mB-146" value="" style="rounded=0;whiteSpace=wrap;html=1;shadow=0;glass=0;labelBackgroundColor=none;sketch=0;verticalAlign=top;fillColor=#1ba1e2;strokeColor=none;imageAspect=1;fontColor=#ffffff;" parent="PWVrWmLwcKZv5xCnu7mB-143" vertex="1">
          <mxGeometry x="30" y="16" width="13.89" height="3.5" as="geometry" />
        </mxCell>
        <mxCell id="PWVrWmLwcKZv5xCnu7mB-147" value="" style="rounded=0;whiteSpace=wrap;html=1;shadow=0;glass=0;labelBackgroundColor=none;sketch=0;verticalAlign=top;fillColor=#d80073;strokeColor=none;imageAspect=1;fontColor=#ffffff;" parent="PWVrWmLwcKZv5xCnu7mB-143" vertex="1">
          <mxGeometry x="30" y="13" width="13.89" height="3" as="geometry" />
        </mxCell>
        <mxCell id="PWVrWmLwcKZv5xCnu7mB-148" value="" style="rounded=0;whiteSpace=wrap;html=1;shadow=0;glass=0;labelBackgroundColor=none;sketch=0;verticalAlign=top;fillColor=#6a00ff;strokeColor=none;imageAspect=1;fontColor=#ffffff;" parent="PWVrWmLwcKZv5xCnu7mB-143" vertex="1">
          <mxGeometry x="30" y="19.5" width="13.89" height="10" as="geometry" />
        </mxCell>
        <mxCell id="PWVrWmLwcKZv5xCnu7mB-149" value="" style="rounded=0;whiteSpace=wrap;html=1;shadow=0;glass=0;labelBackgroundColor=none;sketch=0;verticalAlign=top;fillColor=#a20025;strokeColor=none;imageAspect=1;fontColor=#ffffff;" parent="PWVrWmLwcKZv5xCnu7mB-143" vertex="1">
          <mxGeometry x="30" y="29.5" width="13.89" height="10" as="geometry" />
        </mxCell>
        <mxCell id="PWVrWmLwcKZv5xCnu7mB-150" style="edgeStyle=none;rounded=0;jumpStyle=none;orthogonalLoop=1;jettySize=auto;html=1;fontColor=default;startArrow=async;startFill=1;endArrow=async;endFill=1;targetPerimeterSpacing=0;strokeColor=#5C5C5C;dashed=1;dashPattern=1 1;" parent="1" source="PWVrWmLwcKZv5xCnu7mB-130" target="PWVrWmLwcKZv5xCnu7mB-144" edge="1">
          <mxGeometry relative="1" as="geometry" />
        </mxCell>
        <mxCell id="PWVrWmLwcKZv5xCnu7mB-151" style="edgeStyle=none;rounded=0;jumpStyle=none;orthogonalLoop=1;jettySize=auto;html=1;fontColor=default;startArrow=async;startFill=1;endArrow=async;endFill=1;targetPerimeterSpacing=0;strokeColor=#5C5C5C;dashed=1;dashPattern=1 1;" parent="1" source="PWVrWmLwcKZv5xCnu7mB-137" target="PWVrWmLwcKZv5xCnu7mB-144" edge="1">
          <mxGeometry relative="1" as="geometry" />
        </mxCell>
        <mxCell id="PWVrWmLwcKZv5xCnu7mB-152" style="edgeStyle=none;rounded=0;jumpStyle=none;orthogonalLoop=1;jettySize=auto;html=1;fontColor=default;startArrow=async;startFill=1;endArrow=async;endFill=1;targetPerimeterSpacing=0;strokeColor=#5C5C5C;dashed=1;dashPattern=1 1;" parent="1" source="PWVrWmLwcKZv5xCnu7mB-137" target="PWVrWmLwcKZv5xCnu7mB-130" edge="1">
          <mxGeometry relative="1" as="geometry" />
        </mxCell>
        <mxCell id="PWVrWmLwcKZv5xCnu7mB-154" style="edgeStyle=orthogonalEdgeStyle;rounded=0;jumpStyle=none;orthogonalLoop=1;jettySize=auto;html=1;entryX=0;entryY=0.5;entryDx=0;entryDy=0;fontColor=default;startArrow=none;startFill=0;endArrow=async;endFill=1;targetPerimeterSpacing=0;strokeColor=#5C5C5C;dashed=1;dashPattern=1 1;" parent="1" source="PWVrWmLwcKZv5xCnu7mB-82" target="PWVrWmLwcKZv5xCnu7mB-123" edge="1">
          <mxGeometry relative="1" as="geometry">
            <Array as="points">
              <mxPoint x="-1544" y="1250" />
              <mxPoint x="-1544" y="1250" />
            </Array>
          </mxGeometry>
        </mxCell>
        <mxCell id="PWVrWmLwcKZv5xCnu7mB-155" style="edgeStyle=orthogonalEdgeStyle;rounded=0;jumpStyle=none;orthogonalLoop=1;jettySize=auto;html=1;fontColor=default;startArrow=none;startFill=0;endArrow=async;endFill=1;targetPerimeterSpacing=0;strokeColor=#5C5C5C;dashed=1;dashPattern=1 1;entryX=0;entryY=0.25;entryDx=0;entryDy=0;" parent="1" source="PWVrWmLwcKZv5xCnu7mB-67" target="PWVrWmLwcKZv5xCnu7mB-123" edge="1">
          <mxGeometry relative="1" as="geometry">
            <Array as="points">
              <mxPoint x="-1601" y="1185" />
              <mxPoint x="-1601" y="1238" />
              <mxPoint x="-1490" y="1238" />
            </Array>
          </mxGeometry>
        </mxCell>
        <mxCell id="PWVrWmLwcKZv5xCnu7mB-156" style="edgeStyle=orthogonalEdgeStyle;rounded=0;jumpStyle=none;orthogonalLoop=1;jettySize=auto;html=1;fontColor=default;startArrow=none;startFill=0;endArrow=async;endFill=1;targetPerimeterSpacing=0;strokeColor=#5C5C5C;dashed=1;dashPattern=1 1;entryX=0;entryY=0.75;entryDx=0;entryDy=0;" parent="1" source="PWVrWmLwcKZv5xCnu7mB-87" target="PWVrWmLwcKZv5xCnu7mB-123" edge="1">
          <mxGeometry relative="1" as="geometry">
            <Array as="points">
              <mxPoint x="-1601" y="1320" />
              <mxPoint x="-1601" y="1263" />
              <mxPoint x="-1515" y="1263" />
            </Array>
          </mxGeometry>
        </mxCell>
        <mxCell id="-uzsMk_w0Du20uLRkKy_-1" value="" style="group" vertex="1" connectable="0" parent="1">
          <mxGeometry x="-1372" y="1348" width="50" height="50" as="geometry" />
        </mxCell>
        <mxCell id="-uzsMk_w0Du20uLRkKy_-2" value="Node" style="rounded=1;whiteSpace=wrap;html=1;fillColor=#ffe6cc;strokeColor=#d79b00;verticalAlign=top;treeFolding=0;treeMoving=0;comic=0;horizontal=0;" vertex="1" parent="-uzsMk_w0Du20uLRkKy_-1">
          <mxGeometry width="50" height="49.99999999999997" as="geometry" />
        </mxCell>
        <mxCell id="-uzsMk_w0Du20uLRkKy_-3" value="" style="rounded=0;whiteSpace=wrap;html=1;shadow=0;glass=0;labelBackgroundColor=none;sketch=0;verticalAlign=top;fillColor=#60a917;strokeColor=none;imageAspect=1;fontColor=#ffffff;" vertex="1" parent="-uzsMk_w0Du20uLRkKy_-1">
          <mxGeometry x="30" y="10" width="13.89" height="3" as="geometry" />
        </mxCell>
        <mxCell id="-uzsMk_w0Du20uLRkKy_-4" value="" style="rounded=0;whiteSpace=wrap;html=1;shadow=0;glass=0;labelBackgroundColor=none;sketch=0;verticalAlign=top;fillColor=#1ba1e2;strokeColor=none;imageAspect=1;fontColor=#ffffff;" vertex="1" parent="-uzsMk_w0Du20uLRkKy_-1">
          <mxGeometry x="30" y="16" width="13.89" height="3.5" as="geometry" />
        </mxCell>
        <mxCell id="-uzsMk_w0Du20uLRkKy_-5" value="" style="rounded=0;whiteSpace=wrap;html=1;shadow=0;glass=0;labelBackgroundColor=none;sketch=0;verticalAlign=top;fillColor=#d80073;strokeColor=none;imageAspect=1;fontColor=#ffffff;" vertex="1" parent="-uzsMk_w0Du20uLRkKy_-1">
          <mxGeometry x="30" y="13" width="13.89" height="3" as="geometry" />
        </mxCell>
        <mxCell id="-uzsMk_w0Du20uLRkKy_-6" value="" style="rounded=0;whiteSpace=wrap;html=1;shadow=0;glass=0;labelBackgroundColor=none;sketch=0;verticalAlign=top;fillColor=#6a00ff;strokeColor=none;imageAspect=1;fontColor=#ffffff;" vertex="1" parent="-uzsMk_w0Du20uLRkKy_-1">
          <mxGeometry x="30" y="19.5" width="13.89" height="10" as="geometry" />
        </mxCell>
        <mxCell id="-uzsMk_w0Du20uLRkKy_-7" value="" style="rounded=0;whiteSpace=wrap;html=1;shadow=0;glass=0;labelBackgroundColor=none;sketch=0;verticalAlign=top;fillColor=#a20025;strokeColor=none;imageAspect=1;fontColor=#ffffff;" vertex="1" parent="-uzsMk_w0Du20uLRkKy_-1">
          <mxGeometry x="30" y="29.5" width="13.89" height="10" as="geometry" />
        </mxCell>
        <mxCell id="-uzsMk_w0Du20uLRkKy_-8" value="" style="group" vertex="1" connectable="0" parent="1">
          <mxGeometry x="-1244" y="1229" width="50" height="50" as="geometry" />
        </mxCell>
        <mxCell id="-uzsMk_w0Du20uLRkKy_-9" value="Node" style="rounded=1;whiteSpace=wrap;html=1;fillColor=#ffe6cc;strokeColor=#d79b00;verticalAlign=top;treeFolding=0;treeMoving=0;comic=0;horizontal=0;" vertex="1" parent="-uzsMk_w0Du20uLRkKy_-8">
          <mxGeometry width="50" height="49.99999999999997" as="geometry" />
        </mxCell>
        <mxCell id="-uzsMk_w0Du20uLRkKy_-10" value="" style="rounded=0;whiteSpace=wrap;html=1;shadow=0;glass=0;labelBackgroundColor=none;sketch=0;verticalAlign=top;fillColor=#60a917;strokeColor=none;imageAspect=1;fontColor=#ffffff;" vertex="1" parent="-uzsMk_w0Du20uLRkKy_-8">
          <mxGeometry x="30" y="10" width="13.89" height="3" as="geometry" />
        </mxCell>
        <mxCell id="-uzsMk_w0Du20uLRkKy_-11" value="" style="rounded=0;whiteSpace=wrap;html=1;shadow=0;glass=0;labelBackgroundColor=none;sketch=0;verticalAlign=top;fillColor=#1ba1e2;strokeColor=none;imageAspect=1;fontColor=#ffffff;" vertex="1" parent="-uzsMk_w0Du20uLRkKy_-8">
          <mxGeometry x="30" y="16" width="13.89" height="3.5" as="geometry" />
        </mxCell>
        <mxCell id="-uzsMk_w0Du20uLRkKy_-12" value="" style="rounded=0;whiteSpace=wrap;html=1;shadow=0;glass=0;labelBackgroundColor=none;sketch=0;verticalAlign=top;fillColor=#d80073;strokeColor=none;imageAspect=1;fontColor=#ffffff;" vertex="1" parent="-uzsMk_w0Du20uLRkKy_-8">
          <mxGeometry x="30" y="13" width="13.89" height="3" as="geometry" />
        </mxCell>
        <mxCell id="-uzsMk_w0Du20uLRkKy_-13" value="" style="rounded=0;whiteSpace=wrap;html=1;shadow=0;glass=0;labelBackgroundColor=none;sketch=0;verticalAlign=top;fillColor=#6a00ff;strokeColor=none;imageAspect=1;fontColor=#ffffff;" vertex="1" parent="-uzsMk_w0Du20uLRkKy_-8">
          <mxGeometry x="30" y="19.5" width="13.89" height="10" as="geometry" />
        </mxCell>
        <mxCell id="-uzsMk_w0Du20uLRkKy_-14" value="" style="rounded=0;whiteSpace=wrap;html=1;shadow=0;glass=0;labelBackgroundColor=none;sketch=0;verticalAlign=top;fillColor=#a20025;strokeColor=none;imageAspect=1;fontColor=#ffffff;" vertex="1" parent="-uzsMk_w0Du20uLRkKy_-8">
          <mxGeometry x="30" y="29.5" width="13.89" height="10" as="geometry" />
        </mxCell>
        <mxCell id="-uzsMk_w0Du20uLRkKy_-15" style="edgeStyle=none;rounded=0;jumpStyle=none;orthogonalLoop=1;jettySize=auto;html=1;fontColor=default;startArrow=async;startFill=1;endArrow=async;endFill=1;targetPerimeterSpacing=0;strokeColor=#5C5C5C;exitX=0.5;exitY=1;exitDx=0;exitDy=0;entryX=0;entryY=0.5;entryDx=0;entryDy=0;dashed=1;dashPattern=1 1;" edge="1" parent="1" source="PWVrWmLwcKZv5xCnu7mB-113" target="-uzsMk_w0Du20uLRkKy_-9">
          <mxGeometry relative="1" as="geometry" />
        </mxCell>
        <mxCell id="-uzsMk_w0Du20uLRkKy_-16" style="edgeStyle=none;rounded=0;jumpStyle=none;orthogonalLoop=1;jettySize=auto;html=1;entryX=0.5;entryY=0;entryDx=0;entryDy=0;fontColor=default;startArrow=async;startFill=1;endArrow=async;endFill=1;targetPerimeterSpacing=0;strokeColor=#5C5C5C;exitX=0;exitY=0.5;exitDx=0;exitDy=0;dashed=1;dashPattern=1 1;" edge="1" parent="1" source="-uzsMk_w0Du20uLRkKy_-9" target="-uzsMk_w0Du20uLRkKy_-2">
          <mxGeometry relative="1" as="geometry" />
        </mxCell>
        <mxCell id="-uzsMk_w0Du20uLRkKy_-17" style="edgeStyle=none;rounded=0;jumpStyle=none;orthogonalLoop=1;jettySize=auto;html=1;fontColor=default;startArrow=async;startFill=1;endArrow=async;endFill=1;targetPerimeterSpacing=0;strokeColor=#5C5C5C;entryX=1;entryY=0.5;entryDx=0;entryDy=0;exitX=0.5;exitY=1;exitDx=0;exitDy=0;dashed=1;dashPattern=1 1;" edge="1" parent="1" source="PWVrWmLwcKZv5xCnu7mB-113" target="PWVrWmLwcKZv5xCnu7mB-123">
          <mxGeometry relative="1" as="geometry" />
        </mxCell>
        <mxCell id="-uzsMk_w0Du20uLRkKy_-18" style="edgeStyle=none;rounded=0;jumpStyle=none;orthogonalLoop=1;jettySize=auto;html=1;entryX=1;entryY=0.5;entryDx=0;entryDy=0;fontColor=default;startArrow=async;startFill=1;endArrow=async;endFill=1;targetPerimeterSpacing=0;strokeColor=#5C5C5C;exitX=0.5;exitY=0;exitDx=0;exitDy=0;dashed=1;dashPattern=1 1;" edge="1" parent="1" source="-uzsMk_w0Du20uLRkKy_-2" target="PWVrWmLwcKZv5xCnu7mB-123">
          <mxGeometry relative="1" as="geometry" />
        </mxCell>
        <mxCell id="-uzsMk_w0Du20uLRkKy_-20" style="edgeStyle=orthogonalEdgeStyle;rounded=0;jumpStyle=none;orthogonalLoop=1;jettySize=auto;html=1;fontColor=default;startArrow=async;startFill=1;endArrow=async;endFill=1;targetPerimeterSpacing=0;strokeColor=#5C5C5C;exitX=1;exitY=0.5;exitDx=0;exitDy=0;dashed=1;dashPattern=1 1;" edge="1" parent="1" source="PWVrWmLwcKZv5xCnu7mB-144" target="-uzsMk_w0Du20uLRkKy_-2">
          <mxGeometry relative="1" as="geometry" />
        </mxCell>
        <mxCell id="-uzsMk_w0Du20uLRkKy_-21" style="edgeStyle=orthogonalEdgeStyle;rounded=0;jumpStyle=none;orthogonalLoop=1;jettySize=auto;html=1;entryX=0.5;entryY=1;entryDx=0;entryDy=0;fontColor=default;startArrow=async;startFill=1;endArrow=async;endFill=1;targetPerimeterSpacing=0;strokeColor=#5C5C5C;dashed=1;dashPattern=1 1;" edge="1" parent="1" source="PWVrWmLwcKZv5xCnu7mB-130" target="PWVrWmLwcKZv5xCnu7mB-123">
          <mxGeometry relative="1" as="geometry" />
        </mxCell>
        <mxCell id="-uzsMk_w0Du20uLRkKy_-22" style="edgeStyle=orthogonalEdgeStyle;rounded=0;jumpStyle=none;orthogonalLoop=1;jettySize=auto;html=1;entryX=0.5;entryY=1;entryDx=0;entryDy=0;fontColor=default;startArrow=async;startFill=1;endArrow=async;endFill=1;targetPerimeterSpacing=0;strokeColor=#5C5C5C;dashed=1;dashPattern=1 1;" edge="1" parent="1" source="PWVrWmLwcKZv5xCnu7mB-141" target="-uzsMk_w0Du20uLRkKy_-9">
          <mxGeometry relative="1" as="geometry" />
        </mxCell>
        <mxCell id="-uzsMk_w0Du20uLRkKy_-31" style="edgeStyle=orthogonalEdgeStyle;rounded=0;jumpStyle=none;orthogonalLoop=1;jettySize=auto;html=1;entryX=0;entryY=0.5;entryDx=0;entryDy=0;labelBackgroundColor=none;fontColor=#B0B0B0;startArrow=none;startFill=0;endArrow=open;endFill=0;targetPerimeterSpacing=0;strokeColor=default;dashed=1;" edge="1" parent="1" source="-uzsMk_w0Du20uLRkKy_-26" target="-uzsMk_w0Du20uLRkKy_-29">
          <mxGeometry relative="1" as="geometry" />
        </mxCell>
        <mxCell id="-uzsMk_w0Du20uLRkKy_-26" value="desktop" style="sketch=0;outlineConnect=0;gradientColor=none;fontColor=#545B64;strokeColor=none;fillColor=#879196;dashed=0;verticalLabelPosition=bottom;verticalAlign=top;align=center;html=1;fontSize=12;fontStyle=0;aspect=fixed;shape=mxgraph.aws4.illustration_desktop;pointerEvents=1;shadow=0;glass=0;labelBackgroundColor=none;comic=0;" vertex="1" parent="1">
          <mxGeometry x="-2172.93" y="1358.5" width="31.87" height="29" as="geometry" />
        </mxCell>
        <mxCell id="-uzsMk_w0Du20uLRkKy_-30" style="edgeStyle=orthogonalEdgeStyle;rounded=0;jumpStyle=none;orthogonalLoop=1;jettySize=auto;html=1;entryX=0;entryY=0.5;entryDx=0;entryDy=0;labelBackgroundColor=none;fontColor=#B0B0B0;startArrow=none;startFill=0;endArrow=open;endFill=0;targetPerimeterSpacing=0;strokeColor=default;dashed=1;" edge="1" parent="1" source="-uzsMk_w0Du20uLRkKy_-27" target="-uzsMk_w0Du20uLRkKy_-29">
          <mxGeometry relative="1" as="geometry" />
        </mxCell>
        <mxCell id="-uzsMk_w0Du20uLRkKy_-27" value="Mobile client" style="sketch=0;outlineConnect=0;fontColor=#232F3E;gradientColor=none;strokeColor=#232F3E;fillColor=#ffffff;dashed=0;verticalLabelPosition=bottom;verticalAlign=top;align=center;html=1;fontSize=12;fontStyle=0;aspect=fixed;shape=mxgraph.aws4.resourceIcon;resIcon=mxgraph.aws4.mobile_client;shadow=0;glass=0;labelBackgroundColor=none;comic=0;" vertex="1" parent="1">
          <mxGeometry x="-2178" y="1493.5" width="33" height="33" as="geometry" />
        </mxCell>
        <mxCell id="-uzsMk_w0Du20uLRkKy_-29" value="API Front End" style="rounded=1;whiteSpace=wrap;html=1;dashed=1;verticalAlign=top;horizontal=0;spacing=2;arcSize=6;glass=0;sketch=0;shadow=0;opacity=20;strokeColor=#82b366;fillColor=#d5e8d4;" vertex="1" parent="1">
          <mxGeometry x="-1912" y="1377.25" width="38" height="265.5" as="geometry" />
        </mxCell>
        <mxCell id="PWVrWmLwcKZv5xCnu7mB-130" value="Node" style="rounded=1;whiteSpace=wrap;html=1;fillColor=#ffe6cc;strokeColor=#d79b00;verticalAlign=top;treeFolding=0;treeMoving=0;comic=0;horizontal=0;" parent="1" vertex="1">
          <mxGeometry x="-1766" y="1454" width="50" height="49.99999999999997" as="geometry" />
        </mxCell>
        <mxCell id="PWVrWmLwcKZv5xCnu7mB-131" value="" style="rounded=0;whiteSpace=wrap;html=1;shadow=0;glass=0;labelBackgroundColor=none;sketch=0;verticalAlign=top;fillColor=#60a917;strokeColor=none;imageAspect=1;fontColor=#ffffff;" parent="1" vertex="1">
          <mxGeometry x="-1736" y="1464" width="13.89" height="3" as="geometry" />
        </mxCell>
        <mxCell id="PWVrWmLwcKZv5xCnu7mB-132" value="" style="rounded=0;whiteSpace=wrap;html=1;shadow=0;glass=0;labelBackgroundColor=none;sketch=0;verticalAlign=top;fillColor=#1ba1e2;strokeColor=none;imageAspect=1;fontColor=#ffffff;" parent="1" vertex="1">
          <mxGeometry x="-1736" y="1470" width="13.89" height="3.5" as="geometry" />
        </mxCell>
        <mxCell id="PWVrWmLwcKZv5xCnu7mB-133" value="" style="rounded=0;whiteSpace=wrap;html=1;shadow=0;glass=0;labelBackgroundColor=none;sketch=0;verticalAlign=top;fillColor=#d80073;strokeColor=none;imageAspect=1;fontColor=#ffffff;" parent="1" vertex="1">
          <mxGeometry x="-1736" y="1467" width="13.89" height="3" as="geometry" />
        </mxCell>
        <mxCell id="PWVrWmLwcKZv5xCnu7mB-134" value="" style="rounded=0;whiteSpace=wrap;html=1;shadow=0;glass=0;labelBackgroundColor=none;sketch=0;verticalAlign=top;fillColor=#6a00ff;strokeColor=none;imageAspect=1;fontColor=#ffffff;" parent="1" vertex="1">
          <mxGeometry x="-1736" y="1473.5" width="13.89" height="10" as="geometry" />
        </mxCell>
        <mxCell id="PWVrWmLwcKZv5xCnu7mB-135" value="" style="rounded=0;whiteSpace=wrap;html=1;shadow=0;glass=0;labelBackgroundColor=none;sketch=0;verticalAlign=top;fillColor=#a20025;strokeColor=none;imageAspect=1;fontColor=#ffffff;" parent="1" vertex="1">
          <mxGeometry x="-1736" y="1483.5" width="13.89" height="10" as="geometry" />
        </mxCell>
        <mxCell id="-uzsMk_w0Du20uLRkKy_-38" value="&lt;h1 style=&quot;text-align: left ; font-size: 12px&quot;&gt;&lt;span style=&quot;font-size: 12px&quot;&gt;&quot;Global&quot; mempool: one shared mempool between the network&lt;/span&gt;&lt;/h1&gt;&lt;h1 style=&quot;text-align: left ; font-size: 12px&quot;&gt;&lt;span style=&quot;font-size: 12px ; font-weight: normal&quot;&gt;The nodes that have both incoming and outcoing TCP/IP connections from other node/peers, the Cardano Network itself, shares a &lt;/span&gt;&lt;span style=&quot;font-size: 12px&quot;&gt;&quot;virtual&quot; 128KB&lt;/span&gt;&lt;span style=&quot;font-size: 12px ; font-weight: normal&quot;&gt; &lt;/span&gt;&lt;span style=&quot;font-size: 12px&quot;&gt;global mempool.&amp;nbsp;&lt;/span&gt;&lt;span style=&quot;font-size: 12px ; font-weight: normal&quot;&gt;&amp;nbsp;It means, that they all will have a &quot;&lt;/span&gt;&lt;span style=&quot;font-size: 12px&quot;&gt;&lt;i&gt;very-very similar&lt;/i&gt;&lt;/span&gt;&lt;span style=&quot;font-size: 12px ; font-weight: normal&quot;&gt;&quot; set of transactions in their mempool due to the fast transaction diffusion between all the connected node of the network.&lt;/span&gt;&lt;/h1&gt;&lt;div&gt;&lt;h1 style=&quot;text-align: left ; font-size: 12px&quot;&gt;&lt;br&gt;&lt;/h1&gt;&lt;h1 style=&quot;text-align: left ; font-size: 12px&quot;&gt;&quot;Clustered&quot; mempool: one shared mempool between a group of nodes&lt;/h1&gt;&lt;h1 style=&quot;text-align: left ; font-size: 12px&quot;&gt;&lt;span style=&quot;font-weight: normal&quot;&gt;A group of nodes that have &quot;&lt;/span&gt;&lt;i&gt;bi-directional connections&lt;/i&gt;&lt;span style=&quot;font-weight: normal&quot;&gt;&quot; to each other, and only outgoing connection to all other peers in the global Cardano network shares a &quot;clustered&quot; 128KB mempool between nodes in the cluster.&lt;/span&gt;&lt;/h1&gt;&lt;/div&gt;&lt;div style=&quot;text-align: left&quot;&gt;&lt;br&gt;&lt;/div&gt;&lt;div&gt;&lt;div&gt;&lt;h1 style=&quot;text-align: left ; font-size: 12px&quot;&gt;&quot;Isolated&quot; mempools: one non-shared mempool of and individual node&lt;/h1&gt;&lt;h1 style=&quot;text-align: left ; font-size: 12px&quot;&gt;&lt;span style=&quot;font-weight: normal&quot;&gt;A node that only have outgoing TCP/IP connections to other peers/nodes do not have visibility to the mempool of the other part of the network. This features, allows horizontal scaling of the network for handling temporary network congestions on very high demand of transactions submission e.g., on NFT drops or similar.&lt;/span&gt;&lt;/h1&gt;&lt;/div&gt;&lt;div&gt;&lt;br&gt;&lt;/div&gt;&lt;/div&gt;" style="text;html=1;strokeColor=none;fillColor=none;align=center;verticalAlign=top;whiteSpace=wrap;rounded=0;shadow=0;glass=0;dashed=1;labelBackgroundColor=none;labelBorderColor=none;comic=0;sketch=0;fontSize=12;fontColor=#000000;" vertex="1" parent="1">
          <mxGeometry x="-2332" y="831" width="463" height="328" as="geometry" />
        </mxCell>
      </root>
    </mxGraphModel>
  </diagram>
</mxfile>
